<svg width="33" height="32" viewBox="0 0 33 32" fill="none" xmlns="http://www.w3.org/2000/svg">
<g clip-path="url(#clip0_16_3772)">
<path d="M16.0179 -0.00109863C9.33807 -0.00109863 7.38446 0.00579238 7.00472 0.0372941C5.6339 0.151242 4.78089 0.367078 3.85159 0.82976C3.13542 1.18539 2.5706 1.59762 2.01317 2.17548C0.997973 3.22931 0.382704 4.5258 0.159977 6.06693C0.0516897 6.8151 0.0201879 6.96768 0.0137891 10.7892C0.011328 12.0631 0.0137891 13.7396 0.0137891 15.9883C0.0137891 22.6627 0.0211724 24.6143 0.0531663 24.9933C0.163915 26.3272 0.373106 27.1665 0.8161 28.0845C1.66271 29.8417 3.27964 31.1608 5.18451 31.653C5.84408 31.8228 6.57256 31.9163 7.50776 31.9606C7.904 31.9779 11.9426 31.9902 15.9837 31.9902C20.0248 31.9902 24.0659 31.9853 24.4523 31.9656C25.5351 31.9146 26.1639 31.8302 26.8592 31.6505C28.7764 31.1559 30.3638 29.8564 31.2276 28.0746C31.662 27.1788 31.8823 26.3076 31.9819 25.0433C32.0036 24.7677 32.0127 20.3729 32.0127 15.9841C32.0127 11.5945 32.0029 7.20788 31.9812 6.93224C31.8803 5.64756 31.66 4.78372 31.2116 3.87067C30.8437 3.12324 30.4351 2.56506 29.842 1.99434C28.7835 0.983332 27.489 0.368063 25.9464 0.145581C25.199 0.0375403 25.0501 0.00554627 21.2256 -0.00109863H16.0179Z" fill="url(#paint0_radial_16_3772)"/>
<path d="M16.0179 -0.00109863C9.33807 -0.00109863 7.38446 0.00579238 7.00472 0.0372941C5.6339 0.151242 4.78089 0.367078 3.85159 0.82976C3.13542 1.18539 2.5706 1.59762 2.01317 2.17548C0.997973 3.22931 0.382704 4.5258 0.159977 6.06693C0.0516897 6.8151 0.0201879 6.96768 0.0137891 10.7892C0.011328 12.0631 0.0137891 13.7396 0.0137891 15.9883C0.0137891 22.6627 0.0211724 24.6143 0.0531663 24.9933C0.163915 26.3272 0.373106 27.1665 0.8161 28.0845C1.66271 29.8417 3.27964 31.1608 5.18451 31.653C5.84408 31.8228 6.57256 31.9163 7.50776 31.9606C7.904 31.9779 11.9426 31.9902 15.9837 31.9902C20.0248 31.9902 24.0659 31.9853 24.4523 31.9656C25.5351 31.9146 26.1639 31.8302 26.8592 31.6505C28.7764 31.1559 30.3638 29.8564 31.2276 28.0746C31.662 27.1788 31.8823 26.3076 31.9819 25.0433C32.0036 24.7677 32.0127 20.3729 32.0127 15.9841C32.0127 11.5945 32.0029 7.20788 31.9812 6.93224C31.8803 5.64756 31.66 4.78372 31.2116 3.87067C30.8437 3.12324 30.4351 2.56506 29.842 1.99434C28.7835 0.983332 27.489 0.368063 25.9464 0.145581C25.199 0.0375403 25.0501 0.00554627 21.2256 -0.00109863H16.0179Z" fill="url(#paint1_radial_16_3772)"/>
<path d="M16.0104 4.18274C12.8022 4.18274 12.3995 4.19677 11.1395 4.25411C9.88187 4.3117 9.02344 4.5108 8.27232 4.80293C7.49536 5.10466 6.83629 5.50827 6.17967 6.16514C5.52256 6.82175 5.11895 7.48083 4.81623 8.25754C4.52337 9.00891 4.32402 9.86758 4.26741 11.1247C4.21106 12.3848 4.19629 12.7876 4.19629 15.9959C4.19629 19.2042 4.21056 19.6056 4.26766 20.8656C4.3255 22.1232 4.5246 22.9817 4.81648 23.7328C5.11845 24.5097 5.52207 25.1688 6.17893 25.8254C6.8353 26.4825 7.49438 26.8871 8.27085 27.1889C9.02246 27.481 9.88113 27.6801 11.1385 27.7377C12.3986 27.795 12.8009 27.8091 16.009 27.8091C19.2175 27.8091 19.6189 27.795 20.8789 27.7377C22.1365 27.6801 22.996 27.481 23.7476 27.1889C24.5243 26.8871 25.1824 26.4825 25.8387 25.8254C26.4959 25.1688 26.8995 24.5097 27.2022 23.733C27.4926 22.9817 27.6919 22.123 27.751 20.8659C27.8076 19.6058 27.8224 19.2042 27.8224 15.9959C27.8224 12.7876 27.8076 12.385 27.751 11.1249C27.6919 9.86733 27.4926 9.00891 27.2022 8.25779C26.8995 7.48083 26.4959 6.82175 25.8387 6.16514C25.1816 5.50803 24.5245 5.10441 23.7468 4.80293C22.9937 4.5108 22.1348 4.3117 20.8772 4.25411C19.6171 4.19677 19.216 4.18274 16.0067 4.18274H16.0104ZM14.9507 6.31157C15.2652 6.31108 15.6162 6.31157 16.0104 6.31157C19.1646 6.31157 19.5384 6.32289 20.7839 6.3795C21.9357 6.43216 22.5608 6.62462 22.9772 6.78631C23.5285 7.00043 23.9216 7.25638 24.3348 7.66984C24.7482 8.0833 25.0042 8.47707 25.2188 9.02835C25.3805 9.44427 25.5732 10.0694 25.6256 11.2212C25.6822 12.4665 25.6945 12.8406 25.6945 15.9932C25.6945 19.1458 25.6822 19.5199 25.6256 20.7652C25.5729 21.917 25.3805 22.5421 25.2188 22.958C25.0047 23.5093 24.7482 23.9019 24.3348 24.3151C23.9213 24.7285 23.5288 24.9845 22.9772 25.1986C22.5613 25.361 21.9357 25.553 20.7839 25.6057C19.5386 25.6623 19.1646 25.6746 16.0104 25.6746C12.8561 25.6746 12.4822 25.6623 11.2369 25.6057C10.0852 25.5525 9.46004 25.36 9.04338 25.1984C8.4921 24.9842 8.09832 24.7283 7.68486 24.3148C7.2714 23.9014 7.01545 23.5086 6.80085 22.9571C6.63915 22.5411 6.44645 21.916 6.39403 20.7642C6.33743 19.5189 6.3261 19.1448 6.3261 15.9902C6.3261 12.8356 6.33743 12.4635 6.39403 11.2182C6.4467 10.0664 6.63915 9.44132 6.80085 9.02491C7.01496 8.47362 7.2714 8.07985 7.68486 7.66639C8.09832 7.25293 8.4921 6.99698 9.04338 6.78237C9.45979 6.61994 10.0852 6.42798 11.2369 6.37507C12.3267 6.32584 12.749 6.31108 14.9507 6.30862V6.31157ZM22.3162 8.27305C21.5336 8.27305 20.8986 8.90727 20.8986 9.69013C20.8986 10.4728 21.5336 11.1077 22.3162 11.1077C23.0988 11.1077 23.7338 10.4728 23.7338 9.69013C23.7338 8.90751 23.0988 8.27256 22.3162 8.27256V8.27305ZM16.0104 9.92935C12.6602 9.92935 9.94389 12.6456 9.94389 15.9959C9.94389 19.3462 12.6602 22.0612 16.0104 22.0612C19.3607 22.0612 22.076 19.3462 22.076 15.9959C22.076 12.6456 19.3607 9.92935 16.0104 9.92935ZM16.0104 12.0582C18.185 12.0582 19.9482 13.8211 19.9482 15.9959C19.9482 18.1705 18.185 19.9336 16.0104 19.9336C13.8356 19.9336 12.0727 18.1705 12.0727 15.9959C12.0727 13.8211 13.8356 12.0582 16.0104 12.0582Z" fill="white"/>
</g>
<defs>
<radialGradient id="paint0_radial_16_3772" cx="0" cy="0" r="1" gradientUnits="userSpaceOnUse" gradientTransform="translate(8.51274 34.4542) rotate(-90) scale(31.7057 29.4969)">
<stop stop-color="#FFDD55"/>
<stop offset="0.1" stop-color="#FFDD55"/>
<stop offset="0.5" stop-color="#FF543E"/>
<stop offset="1" stop-color="#C837AB"/>
</radialGradient>
<radialGradient id="paint1_radial_16_3772" cx="0" cy="0" r="1" gradientUnits="userSpaceOnUse" gradientTransform="translate(-5.34747 2.3035) rotate(78.6776) scale(14.1727 58.4353)">
<stop stop-color="#3771C8"/>
<stop offset="0.128" stop-color="#3771C8"/>
<stop offset="1" stop-color="#6600FF" stop-opacity="0"/>
</radialGradient>
<clipPath id="clip0_16_3772">
<rect x="0.0126953" y="-0.00109863" width="32" height="31.9913" rx="15.9956" fill="white"/>
</clipPath>
</defs>
</svg>
